P3
# Generated by You !
75 50
255
0 0 0 0 0 0 0 0 0 0 0 0 0 0 0 0 0 0 0 0 0 0 0 0 0 0 0 0 0 0 0 0 0 0 0 0 0 0 0 0 0 0 0 0 0 0 0 0 0 0 0 0 0 0 0 0 0 0 0 0 0 0 0 0 0 0 0 0 0 0 0 0 0 0 0 0 0 0 0 0 0 0 0 0 0 0 0 0 0 0 0 0 0 0 0 0 0 0 0 0 0 0 0 0 0 0 0 0 0 0 0 0 0 0 0 0 0 0 0 0 0 0 0 0 0 0 0 0 0 0 0 0 0 0 0 0 0 0 0 0 0 0 0 0 0 0 0 0 0 0 0 0 0 0 0 0 0 0 0 0 0 0 0 0 0 0 0 0 0 0 0 0 0 0 0 0 0 0 0 0 0 0 0 0 0 0 0 0 0 0 0 0 0 0 0 0 0 0 0 0 0 0 0 0 0 0 0 16 137 17 18 149 19 18 153 19 18 153 19 18 152 19 18 150 19 0 0 0 0 0 0 0 0 0 0 0 0 0 0 0 0 0 0 0 0 0 0 0 0 0 0 0 0 0 0 0 0 0 0 0 0 0 0 0 0 0 0 0 0 0 0 0 0 0 0 0 0 0 0 0 0 0 0 0 0 0 0 0 0 0 0 0 0 0 0 0 0 0 0 0 0 0 0 0 0 0 0 0 0 0 0 0 0 0 0 0 0 0 0 0 0 0 0 0 0 0 0 0 0 0 0 0 0 0 0 0 0 0 0 0 0 0 0 0 0 0 0 0 0 0 0 0 0 0 0 0 0 0 0 0 0 0 0 0 0 0 0 0 0 0 0 0 0 0 0 0 0 0 0 0 0 0 0 0 0 0 0 0 0 0 0 0 0 0 0 0 0 0 0 0 0 0 0 0 0 0 0 0 0 0 0 0 0 0 0 0 0 0 0 0 0 0 0 0 0 0 0 0 0 0 0 0 15 130 16 16 136 17 16 138 17 16 138 17 16 137 17 16 134 17 0 0 0 0 0 0 0 0 0 0 0 0 0 0 0 0 0 0 0 0 0 0 0 0 0 0 0 0 0 0 0 0 0 0 0 0 0 0 0 0 0 0 0 0 0 0 0 0 0 0 0 0 0 0 0 0 0 0 0 0 0 0 0 0 0 0 0 0 0 0 0 0 0 0 0 0 0 0 0 0 0 0 0 0 0 0 0 0 0 0 0 0 0 0 0 0 0 0 0 0 0 0 0 0 0 0 0 0 0 0 0 0 0 0 0 0 0 0 0 0 0 0 0 0 0 0 0 0 0 0 0 0 0 0 0 0 0 0 0 0 0 0 0 0 0 0 0 0 0 0 0 0 0 0 0 0 0 0 0 0 0 0 0 0 0 0 0 0 0 0 0 0 0 0 0 0 0 0 0 0 0 0 0 0 0 0 0 0 0 0 0 0 0 0 0 0 0 0 0 0 0 0 0 0 12 100 12 14 116 14 14 121 15 14 122 15 14 122 15 14 120 15 14 118 14 0 0 0 0 0 0 0 0 0 0 0 0 0 0 0 0 0 0 0 0 0 0 0 0 0 0 0 0 0 0 0 0 0 0 0 0 0 0 0 0 0 0 0 0 0 0 0 0 0 0 0 0 0 0 0 0 0 0 0 0 0 0 0 0 0 0 0 0 0 0 0 0 0 0 0 0 0 0 0 0 0 0 0 0 0 0 0 0 0 0 0 0 0 0 0 0 0 0 0 0 0 0 0 0 0 0 0 0 0 0 0 0 0 0 0 0 0 0 0 0 0 0 0 0 0 0 0 0 0 0 0 0 0 0 0 0 0 0 0 0 0 0 0 0 0 0 0 0 0 0 0 0 0 0 0 0 252 151 70 255 155 72 255 158 73 255 161 74 255 163 75 255 165 76 255 167 77 255 170 78 255 171 79 255 173 80 255 175 80 255 177 81 255 178 82 0 0 0 0 0 0 0 0 0 10 89 11 12 100 12 12 104 13 12 105 13 12 104 13 12 103 13 12 101 12 0 0 0 0 0 0 0 0 0 0 0 0 0 0 0 0 0 0 0 0 0 0 0 0 0 0 0 0 0 0 0 0 0 0 0 0 0 0 0 0 0 0 0 0 0 0 0 0 0 0 0 0 0 0 0 0 0 0 0 0 0 0 0 0 0 0 0 0 0 0 0 0 0 0 0 0 0 0 0 0 0 0 0 0 0 0 0 0 0 0 0 0 0 0 0 0 0 0 0 0 0 0 0 0 0 0 0 0 0 0 0 0 0 0 0 0 0 0 0 0 0 0 0 0 0 0 0 0 0 0 0 0 0 0 0 0 0 0 0 0 0 0 0 0 0 0 0 231 138 65 239 143 67 245 147 68 250 150 70 255 153 71 255 155 72 255 158 73 255 160 74 255 162 75 255 164 76 255 166 77 255 168 77 255 170 78 255 172 79 255 174 80 255 175 80 255 177 81 255 178 82 255 179 82 8 72 9 9 81 10 10 85 10 10 86 10 10 86 10 10 85 10 9 82 10 0 0 0 0 0 0 0 0 0 0 0 0 0 0 0 0 0 0 0 0 0 0 0 0 0 0 0 0 0 0 0 0 0 0 0 0 0 0 0 0 0 0 0 0 0 0 0 0 0 0 0 0 0 0 0 0 0 0 0 0 0 0 0 0 0 0 0 0 0 0 0 0 0 0 0 0 0 0 0 0 0 0 0 0 0 0 0 0 0 0 0 0 0 0 0 0 0 0 0 0 0 0 0 0 0 0 0 0 0 0 0 0 0 0 0 0 0 0 0 0 0 0 0 0 0 0 0 0 0 0 0 0 0 0 0 0 0 0 0 0 0 215 129 61 223 134 63 230 138 65 236 141 66 241 144 67 245 147 68 250 150 70 254 152 71 255 154 72 255 156 72 255 159 73 255 161 74 255 163 75 255 164 76 255 166 77 255 168 77 255 170 78 255 172 79 255 173 80 255 175 80 255 176 81 158 95 46 169 101 49 7 65 8 7 67 8 7 66 8 7 65 8 7 63 7 0 0 0 0 0 0 0 0 0 0 0 0 0 0 0 0 0 0 0 0 0 0 0 0 0 0 0 0 0 0 0 0 0 0 0 0 0 0 0 0 0 0 0 0 0 0 0 0 0 0 0 0 0 0 0 0 0 0 0 0 0 0 0 0 0 0 0 0 0 0 0 0 0 0 0 0 0 0 0 0 0 0 0 0 0 0 0 0 0 0 0 0 0 0 0 0 0 0 0 0 0 0 0 0 0 0 0 0 0 0 0 0 0 0 0 0 0 0 0 0 0 0 0 0 0 0 0 0 0 0 0 0 0 0 0 204 122 58 209 125 59 214 128 60 220 132 62 226 135 63 231 138 65 235 141 66 240 144 67 244 146 68 248 148 69 252 151 70 255 153 71 255 155 72 255 157 73 255 159 73 255 161 74 255 163 75 255 164 76 255 166 77 255 168 77 255 169 78 255 171 79 255 172 79 150 90 44 162 97 47 171 102 49 177 106 51 5 46 5 5 44 5 4 42 5 0 0 0 0 0 0 0 0 0 0 0 0 0 0 0 0 0 0 0 0 0 0 0 0 0 0 0 0 0 0 0 0 0 0 0 0 0 0 0 0 0 0 0 0 0 0 0 0 0 0 0 0 0 0 0 0 0 0 0 0 0 0 0 0 0 0 0 0 0 0 0 0 0 0 0 0 0 0 0 0 0 0 0 0 0 0 0 0 0 0 0 0 0 0 0 0 0 0 0 0 0 0 0 0 0 0 0 0 0 0 0 0 0 0 0 0 0 0 0 0 0 0 0 0 0 0 0 0 0 0 0 0 205 123 58 208 125 59 209 125 59 209 125 59 215 129 61 220 132 62 225 135 63 230 138 64 234 140 66 238 143 67 242 145 68 245 147 68 249 149 69 252 151 70 255 153 71 255 155 72 255 157 73 255 159 73 255 160 74 255 162 75 255 164 76 255 165 76 255 167 77 255 169 78 140 84 42 154 92 45 163 97 47 169 101 49 174 104 50 2 22 2 2 20 2 0 0 0 0 0 0 0 0 0 0 0 0 0 0 0 0 0 0 0 0 0 0 0 0 0 0 0 0 0 0 0 0 0 0 0 0 0 0 0 0 0 0 0 0 0 0 0 0 0 0 0 0 0 0 0 0 0 0 0 0 0 0 0 0 0 0 0 0 0 0 0 0 0 0 0 0 0 0 0 0 0 0 0 0 0 0 0 0 0 0 0 0 0 0 0 0 0 0 0 0 0 0 0 0 0 0 0 0 0 0 0 0 0 0 0 0 0 0 0 0 0 0 0 0 0 0 0 0 0 204 122 58 206 123 58 207 124 59 207 124 59 206 124 59 210 126 59 215 129 61 219 131 62 224 134 63 228 136 64 232 139 65 236 141 66 239 143 67 243 145 68 246 147 69 249 149 69 252 151 70 255 153 71 255 155 72 255 157 73 255 158 73 255 160 74 255 162 75 255 163 75 255 165 76 255 166 77 147 88 44 155 93 45 161 96 47 166 99 48 170 102 49 0 2 0 0 0 0 0 0 0 0 0 0 0 0 0 0 0 0 0 0 0 0 0 0 0 0 0 0 0 0 0 0 0 0 0 0 0 0 0 0 0 0 0 0 0 0 0 0 0 0 0 0 0 0 0 0 0 0 0 0 0 0 0 0 0 0 0 0 0 0 0 0 0 0 0 0 0 0 0 0 0 0 0 0 0 0 0 0 0 0 0 0 0 0 0 0 0 0 0 0 0 0 0 0 0 0 0 0 0 0 0 0 0 0 0 0 0 0 0 0 0 0 0 0 0 0 0 0 0 201 120 57 204 122 58 204 122 58 205 123 58 204 122 58 204 122 58 204 122 58 209 125 59 213 128 60 218 130 62 222 133 63 226 136 64 230 138 65 233 140 65 236 142 66 240 144 67 243 146 68 246 147 69 249 149 69 252 151 70 255 153 71 255 154 72 255 156 72 255 158 73 255 159 74 255 161 74 255 163 75 141 85 42 151 91 45 158 95 46 164 98 48 168 101 49 172 103 50 0 0 0 0 0 0 0 0 0 0 0 0 0 0 0 0 0 0 0 0 0 0 0 0 0 0 0 0 0 0 0 0 0 0 0 0 0 0 0 0 0 0 0 0 0 0 0 0 0 0 0 0 0 0 0 0 0 0 0 0 0 0 0 0 0 0 0 0 0 0 0 0 0 0 0 0 0 0 0 0 0 0 0 0 0 0 0 0 0 0 0 0 0 0 0 0 0 0 0 0 0 0 0 0 0 0 0 0 0 0 0 0 0 0 0 0 0 0 0 0 0 0 0 198 118 56 200 120 57 202 121 57 202 121 57 202 121 57 201 121 57 201 120 57 200 120 57 203 122 58 208 125 60 215 130 62 221 134 65 226 137 67 228 138 67 229 138 66 231 139 65 234 140 66 237 142 66 240 144 67 243 145 68 246 147 69 248 149 69 251 151 70 254 152 71 255 154 71 255 155 72 255 158 73 255 160 75 255 162 76 145 87 43 154 92 45 160 96 47 165 99 48 169 101 49 0 0 0 0 0 0 0 0 0 0 0 0 0 0 0 0 0 0 0 0 0 0 0 0 0 0 0 0 0 0 0 0 0 0 0 0 0 0 0 0 0 0 0 0 0 0 0 0 0 0 0 0 0 0 0 0 0 0 0 0 0 0 0 0 0 0 0 0 0 0 0 0 0 0 0 0 0 0 0 0 0 0 0 0 0 0 0 0 0 0 0 0 0 0 0 0 0 0 0 0 0 0 0 0 0 0 0 0 0 0 0 0 0 0 0 0 0 0 0 0 193 116 55 197 118 56 198 119 56 199 119 57 199 119 57 199 119 57 198 119 56 197 118 56 197 118 56 200 121 59 212 131 66 231 146 78 247 159 89 251 161 90 244 154 82 234 144 73 229 138 67 228 137 65 230 138 65 233 140 65 236 141 66 239 143 67 242 145 68 245 147 68 247 148 69 250 150 70 253 152 71 255 154 72 255 159 76 255 166 81 255 170 84 255 168 81 153 92 45 159 95 47 164 98 48 0 0 0 0 0 0 0 0 0 0 0 0 0 0 0 0 0 0 0 0 0 0 0 0 0 0 0 0 0 0 0 0 0 0 0 0 0 0 0 0 0 0 0 0 0 0 0 0 0 0 0 0 0 0 0 0 0 0 0 0 0 0 0 0 0 0 0 0 0 0 0 0 0 0 0 0 0 0 0 0 0 0 0 0 0 0 0 0 0 0 0 0 0 0 0 0 0 0 0 0 0 0 0 0 0 0 0 0 0 0 0 0 0 0 0 0 0 187 112 54 192 115 55 194 116 56 195 117 56 196 117 56 196 117 56 195 117 56 195 117 56 194 116 56 197 119 58 209 131 69 245 162 95 255 203 130 255 229 151 255 220 143 255 188 114 247 158 86 229 140 70 223 135 64 224 134 63 227 136 64 230 138 64 233 139 65 235 141 66 238 143 67 241 144 67 244 146 68 246 148 69 251 151 71 255 159 77 255 173 89 255 189 103 255 192 104 255 177 91 255 163 78 255 158 73 0 0 0 0 0 0 0 0 0 0 0 0 0 0 0 0 0 0 0 0 0 0 0 0 0 0 0 0 0 0 0 0 0 0 0 0 0 0 0 0 0 0 0 0 0 0 0 0 0 0 0 0 0 0 0 0 0 0 0 0 0 0 0 0 0 0 0 0 0 0 0 0 0 0 0 0 0 0 0 0 0 0 0 0 0 0 0 0 0 0 0 0 0 0 0 0 0 0 0 0 0 0 0 0 0 0 0 0 0 0 0 0 0 0 0 0 0 187 112 54 190 114 54 192 115 55 192 115 55 192 115 55 192 115 55 192 115 55 191 115 55 192 116 56 202 125 64 236 155 91 255 214 143 255 255 199 255 255 219 255 255 191 255 214 138 253 165 94 226 140 71 218 131 63 218 131 62 220 132 62 223 134 63 226 135 64 229 137 64 232 139 65 234 140 66 237 142 66 240 144 67 244 147 69 255 156 76 255 178 95 255 214 126 255 238 147 255 223 133 255 183 98 255 159 76 0 0 0 0 0 0 0 0 0 0 0 0 0 0 0 0 0 0 0 0 0 0 0 0 0 0 0 0 0 0 0 0 0 0 0 0 0 0 0 0 0 0 0 0 0 0 0 0 0 0 0 0 0 0 0 0 0 0 0 0 0 0 0 0 0 0 0 0 0 0 0 0 0 0 0 0 0 0 0 0 0 0 0 0 0 0 0 0 0 0 0 0 0 0 0 0 0 0 0 0 0 0 0 0 0 0 0 0 0 0 0 0 0 0 180 108 52 185 111 53 187 112 54 188 113 54 189 113 54 189 113 54 188 113 54 188 113 54 188 113 54 191 115 57 207 130 70 253 172 106 255 238 165 255 255 215 255 255 222 255 255 181 255 199 127 239 154 87 216 133 67 210 127 61 211 127 60 214 128 60 217 130 61 219 131 62 222 133 63 225 135 63 228 136 64 230 138 65 233 140 65 237 142 67 247 150 73 255 174 94 255 224 137 255 255 186 255 255 195 255 236 145 255 176 92 0 0 0 0 0 0 0 0 0 0 0 0 0 0 0 0 0 0 0 0 0 0 0 0 0 0 0 0 0 0 0 0 0 0 0 0 0 0 0 0 0 0 0 0 0 0 0 0 0 0 0 0 0 0 0 0 0 0 0 0 0 0 0 0 0 0 0 0 0 0 0 0 0 0 0 0 0 0 0 0 0 0 0 0 0 0 0 0 0 0 0 0 0 0 0 0 0 0 0 0 0 0 0 0 0 0 0 0 0 0 0 166 99 48 178 107 51 182 109 52 184 110 53 185 111 53 185 111 53 185 111 53 185 111 53 184 110 53 184 110 53 187 113 56 202 127 68 238 159 97 255 203 136 255 234 162 255 230 158 255 197 128 241 159 94 214 134 71 203 124 61 202 121 58 204 122 58 207 124 59 210 126 59 213 128 60 216 129 61 218 131 62 221 132 62 224 134 63 226 136 64 230 138 65 237 143 69 255 163 85 255 211 127 255 255 194 255 255 237 255 255 203 255 211 125 0 0 0 0 0 0 0 0 0 0 0 0 0 0 0 0 0 0 0 0 0 0 0 0 0 0 0 0 0 0 0 0 0 0 0 0 0 0 0 0 0 0 0 0 0 0 0 0 0 0 0 0 0 0 0 0 0 0 0 0 0 0 0 0 0 0 0 0 0 0 0 0 0 0 0 0 0 0 0 0 0 0 0 0 0 0 0 0 0 0 0 0 0 0 0 0 0 0 0 0 0 0 0 0 0 0 0 0 0 0 0 169 101 49 176 105 51 178 107 51 180 108 52 181 108 52 181 108 52 181 108 52 181 108 52 180 108 52 180 108 52 182 110 54 189 117 60 206 132 74 225 150 90 235 159 98 231 154 93 216 140 80 202 126 67 194 118 59 193 116 56 194 117 56 197 118 56 200 120 57 203 122 58 206 124 59 209 125 59 212 127 60 215 129 61 217 130 61 220 132 62 222 133 63 227 137 65 241 149 75 255 185 106 255 255 167 255 255 230 255 255 231 255 248 159 0 0 0 0 0 0 0 0 0 0 0 0 0 0 0 0 0 0 0 0 0 0 0 0 0 0 0 0 0 0 0 0 0 0 0 0 0 0 0 0 0 0 0 0 0 0 0 0 0 0 0 0 0 0 0 0 0 0 0 0 0 0 0 0 0 0 0 0 0 0 0 0 0 0 0 0 0 0 0 0 0 0 0 0 0 0 0 0 0 0 0 0 0 0 0 0 0 0 0 0 0 0 0 0 0 0 0 0 0 0 0 167 100 49 172 103 50 174 104 50 176 105 51 177 106 51 177 106 51 177 106 51 176 106 51 176 105 51 175 105 51 176 105 51 177 107 53 182 111 57 186 116 61 187 117 62 184 114 60 182 112 57 181 110 54 182 109 53 184 111 53 187 112 54 191 114 55 194 116 55 197 118 56 200 120 57 202 121 58 205 123 58 208 125 59 210 126 60 213 128 60 215 129 61 219 131 62 227 138 67 250 158 85 255 207 126 255 255 184 255 255 210 255 255 168 0 0 0 0 0 0 0 0 0 0 0 0 0 0 0 0 0 0 0 0 0 0 0 0 0 0 0 0 0 0 0 0 0 0 0 0 0 0 0 0 0 0 0 0 0 0 0 0 0 0 0 0 0 0 0 0 0 0 0 0 0 0 0 0 0 0 0 0 0 0 0 0 0 0 0 0 0 0 0 0 0 0 0 0 0 0 0 0 0 0 0 0 0 0 0 0 0 0 0 0 0 0 0 0 0 0 0 0 154 92 45 164 98 48 168 101 49 170 102 49 172 103 50 172 103 50 173 103 50 172 103 50 172 103 50 172 103 50 171 102 50 170 102 50 170 102 50 170 102 50 170 102 51 169 102 51 167 101 50 168 101 50 171 103 50 174 104 50 177 106 51 181 108 52 184 110 53 187 112 54 190 114 54 193 116 55 196 117 56 198 119 57 201 120 57 204 122 58 206 124 59 209 125 59 211 127 60 216 130 62 227 140 70 255 165 92 255 209 130 255 244 160 255 229 146 0 0 0 0 0 0 0 0 0 0 0 0 0 0 0 0 0 0 0 0 0 0 0 0 0 0 0 0 0 0 0 0 0 0 0 0 0 0 0 0 0 0 0 0 0 0 0 0 0 0 0 0 0 0 0 0 0 0 0 0 0 0 0 0 0 0 0 0 0 0 0 0 0 0 0 0 0 0 0 0 0 0 0 0 0 0 0 0 0 0 0 0 0 0 0 0 0 0 0 0 0 0 0 0 0 0 0 0 153 92 45 160 96 47 164 98 48 166 99 48 167 100 49 168 101 49 168 101 49 168 101 49 168 100 49 167 100 49 167 100 48 166 99 48 165 99 48 164 98 48 163 98 48 162 97 47 161 96 47 160 96 47 164 98 48 167 100 49 171 102 49 174 104 50 177 106 51 180 108 52 183 110 53 186 111 53 189 113 54 192 115 55 194 116 55 197 118 56 199 119 57 202 121 57 204 122 58 207 124 59 213 129 62 226 140 72 252 162 91 255 186 111 255 188 112 0 0 0 0 0 0 0 0 0 0 0 0 0 0 0 0 0 0 0 0 0 0 0 0 0 0 0 0 0 0 0 0 0 0 0 0 0 0 0 0 0 0 0 0 0 0 0 0 0 0 0 0 0 0 0 0 0 0 0 0 0 0 0 0 0 0 0 0 0 0 0 0 0 0 0 0 0 0 0 0 0 0 0 0 0 0 0 0 0 0 0 0 0 0 0 0 0 0 0 0 0 0 0 0 0 0 0 0 150 90 44 156 93 46 159 95 47 161 97 47 163 97 47 163 98 48 164 98 48 164 98 48 163 98 48 163 98 47 162 97 47 162 97 47 161 96 47 160 96 47 159 95 46 157 94 46 156 93 46 155 93 45 157 94 46 160 96 47 164 98 48 167 100 49 170 102 49 173 104 50 176 106 51 179 107 52 182 109 52 185 111 53 187 112 54 190 114 54 193 115 55 195 117 56 197 118 56 200 120 57 203 122 58 209 126 62 220 136 69 234 148 80 240 153 84 0 0 0 0 0 0 0 0 0 0 0 0 0 0 0 0 0 0 0 0 0 0 0 0 0 0 0 0 0 0 0 0 0 0 0 0 0 0 0 0 0 0 0 0 0 0 0 0 0 0 0 0 0 0 0 0 0 0 0 0 0 0 0 0 0 0 0 0 0 0 0 0 0 0 0 0 0 0 0 0 0 0 0 0 0 0 0 0 0 0 0 0 0 0 0 0 0 0 0 0 0 0 0 0 0 0 0 0 145 87 43 151 91 45 155 93 45 157 94 46 158 94 46 158 95 46 159 95 46 159 95 46 159 95 46 158 95 46 158 94 46 157 94 46 156 94 46 155 93 46 154 92 45 153 92 45 152 91 45 150 90 44 150 90 44 153 92 45 157 94 46 160 96 47 163 98 48 166 100 48 169 101 49 172 103 50 175 105 51 178 107 51 181 108 52 183 110 53 186 111 53 188 113 54 190 114 54 192 115 55 195 117 56 198 119 57 203 123 60 209 128 64 214 131 67 0 0 0 0 0 0 0 0 0 0 0 0 0 0 0 0 0 0 0 0 0 0 0 0 0 0 0 0 0 0 0 0 0 0 0 0 0 0 0 0 0 0 0 0 0 0 0 0 0 0 0 0 0 0 0 0 0 0 0 0 0 0 0 0 0 0 0 0 0 0 0 0 0 0 0 0 0 0 0 0 0 0 0 0 0 0 0 0 0 0 0 0 0 0 0 0 0 0 0 0 0 0 0 0 0 0 0 0 141 84 42 146 88 43 149 89 44 152 91 45 153 91 45 154 92 45 154 92 45 154 92 45 154 92 45 154 92 45 153 92 45 152 91 45 152 91 45 151 90 44 150 90 44 149 89 44 147 88 44 146 87 43 145 87 43 146 87 43 150 90 44 153 92 45 156 94 46 159 95 47 162 97 47 165 99 48 168 101 49 171 102 50 174 104 50 176 105 51 179 107 51 181 108 52 183 110 53 185 111 53 188 112 54 190 114 54 192 115 56 195 118 57 198 120 58 0 0 0 0 0 0 0 0 0 0 0 0 0 0 0 0 0 0 0 0 0 0 0 0 0 0 0 0 0 0 0 0 0 0 0 0 0 0 0 0 0 0 0 0 0 0 0 0 0 0 0 0 0 0 0 0 0 0 0 0 0 0 0 0 0 0 0 0 0 0 0 0 0 0 0 0 0 0 0 0 0 0 0 0 0 0 0 0 0 0 0 0 0 0 0 0 0 0 0 0 0 0 0 0 0 0 0 0 135 81 40 141 84 42 144 86 43 146 88 43 148 88 44 148 89 44 149 89 44 149 89 44 149 89 44 149 89 44 148 89 44 148 88 44 147 88 43 146 87 43 145 87 43 144 86 43 143 85 42 141 85 42 140 84 42 139 83 41 142 85 42 146 87 43 149 89 44 152 91 45 155 93 46 158 95 46 161 96 47 164 98 48 166 100 48 169 101 49 171 103 50 174 104 50 176 105 51 178 107 51 180 108 52 182 109 52 184 110 53 186 112 54 188 113 54 0 0 0 0 0 0 0 0 0 0 0 0 0 0 0 0 0 0 0 0 0 0 0 0 0 0 0 0 0 0 0 0 0 0 0 0 0 0 0 0 0 0 0 0 0 0 0 0 0 0 0 0 0 0 0 0 0 0 0 0 0 0 0 0 0 0 0 0 0 0 0 0 0 0 0 0 0 0 0 0 0 0 0 0 0 0 0 0 0 0 0 0 0 0 0 0 0 0 0 0 0 0 0 0 0 0 0 0 129 77 39 135 81 40 139 83 41 141 84 42 142 85 42 143 86 43 144 86 43 144 86 43 144 86 43 144 86 43 143 86 43 143 85 42 142 85 42 141 85 42 140 84 42 139 83 41 138 83 41 137 82 41 135 81 41 134 80 40 135 81 40 139 83 41 142 85 42 145 87 43 148 89 44 151 90 44 154 92 45 157 94 46 159 95 47 162 97 47 164 98 48 167 100 48 169 101 49 171 102 50 173 104 50 175 105 51 177 106 51 178 107 51 180 108 52 0 0 0 0 0 0 0 0 0 0 0 0 0 0 0 0 0 0 0 0 0 0 0 0 0 0 0 0 0 0 0 0 0 0 0 0 0 0 0 0 0 0 0 0 0 0 0 0 0 0 0 0 0 0 0 0 0 0 0 0 0 0 0 0 0 0 0 0 0 0 0 0 0 0 0 0 0 0 0 0 0 0 0 0 0 0 0 0 0 0 0 0 0 0 0 0 0 0 0 0 0 0 0 0 0 0 0 0 123 73 37 129 77 39 133 79 40 135 81 40 137 82 41 138 82 41 138 83 41 139 83 41 139 83 41 139 83 41 138 83 41 138 82 41 137 82 41 136 82 41 135 81 41 134 80 40 133 80 40 132 79 40 131 78 39 129 77 39 128 76 39 131 78 39 134 80 40 138 82 41 141 84 42 144 86 43 147 88 43 149 89 44 152 91 45 154 92 45 157 94 46 159 95 47 161 97 47 164 98 48 166 99 48 167 100 49 169 101 49 171 102 50 172 103 50 0 0 0 0 0 0 0 0 0 0 0 0 0 0 0 0 0 0 0 0 0 0 0 0 0 0 0 0 0 0 0 0 0 0 0 0 0 0 0 0 0 0 0 0 0 0 0 0 0 0 0 0 0 0 0 0 0 0 0 0 0 0 0 0 0 0 0 0 0 0 0 0 0 0 0 0 0 0 0 0 0 0 0 0 0 0 0 0 0 0 0 0 0 0 0 0 0 0 0 0 0 0 0 0 0 0 0 0 115 69 35 122 73 37 126 76 38 129 77 39 131 78 39 132 79 40 133 80 40 133 80 40 133 80 40 133 80 40 133 80 40 133 79 40 132 79 40 131 79 39 130 78 39 129 77 39 128 77 39 127 76 38 126 75 38 124 74 38 123 74 37 124 74 38 127 76 38 130 78 39 133 80 40 136 82 41 139 83 41 142 85 42 145 87 43 147 88 43 149 89 44 152 91 45 154 92 45 156 93 46 158 95 46 160 96 47 162 97 47 163 98 48 164 98 48 0 0 0 0 0 0 0 0 0 0 0 0 0 0 0 0 0 0 0 0 0 0 0 0 0 0 0 0 0 0 0 0 0 0 0 0 0 0 0 0 0 0 0 0 0 0 0 0 0 0 0 0 0 0 0 0 0 0 0 0 0 0 0 0 0 0 0 0 0 0 0 0 0 0 0 0 0 0 0 0 0 0 0 0 0 0 0 0 0 0 0 0 0 0 0 0 0 0 0 0 0 0 0 0 0 0 0 0 108 64 33 115 69 35 120 72 37 123 73 37 125 75 38 126 76 38 127 76 38 128 76 39 128 77 39 128 77 39 128 76 39 127 76 38 127 76 38 126 75 38 125 75 38 124 74 38 123 74 37 122 73 37 121 72 37 119 71 36 118 71 36 116 70 36 119 71 36 123 73 37 126 75 38 129 77 39 132 79 40 134 80 40 137 82 41 139 83 42 142 85 42 144 86 43 146 88 43 148 89 44 150 90 44 152 91 45 154 92 45 155 93 46 156 94 46 0 0 0 0 0 0 0 0 0 0 0 0 0 0 0 0 0 0 0 0 0 0 0 0 0 0 0 0 0 0 0 0 0 0 0 0 0 0 0 0 0 0 0 0 0 0 0 0 0 0 0 0 0 0 0 0 0 0 0 0 0 0 0 0 0 0 0 0 0 0 0 0 0 0 0 0 0 0 0 0 0 0 0 0 0 0 0 0 0 0 0 0 0 0 0 0 0 0 0 0 0 0 0 0 0 0 0 0 98 59 31 108 64 33 113 68 35 116 70 36 118 71 36 120 72 37 121 72 37 122 73 37 122 73 37 122 73 37 122 73 37 122 73 37 121 73 37 121 72 37 120 72 37 119 71 36 118 71 36 117 70 36 116 69 35 114 68 35 113 67 35 111 67 34 111 67 34 115 69 35 118 71 36 121 72 37 124 74 38 127 76 38 129 77 39 132 79 40 134 80 40 136 82 41 139 83 41 141 84 42 142 85 42 144 86 43 146 87 43 147 88 43 148 89 44 0 0 0 0 0 0 0 0 0 0 0 0 0 0 0 0 0 0 0 0 0 0 0 0 0 0 0 0 0 0 0 0 0 0 0 0 0 0 0 0 0 0 0 0 0 0 0 0 0 0 0 0 0 0 0 0 0 0 0 0 0 0 0 0 0 0 0 0 0 0 0 0 0 0 0 0 0 0 0 0 0 0 0 0 0 0 0 0 0 0 0 0 0 0 0 0 0 0 0 0 0 0 0 0 0 0 0 0 87 52 28 99 59 31 105 63 33 109 65 34 112 67 35 114 68 35 115 69 35 116 69 36 116 70 36 116 70 36 116 70 36 116 69 36 116 69 36 115 69 35 114 68 35 114 68 35 113 67 35 112 67 34 110 66 34 109 65 34 108 64 33 106 63 33 104 62 33 107 64 33 110 66 34 113 68 35 116 69 36 119 71 36 121 73 37 124 74 38 126 76 38 128 77 39 131 78 39 133 79 40 134 80 40 136 81 41 138 82 41 139 83 41 140 84 42 0 0 0 0 0 0 0 0 0 0 0 0 0 0 0 0 0 0 0 0 0 0 0 0 0 0 0 0 0 0 0 0 0 0 0 0 0 0 0 0 0 0 0 0 0 0 0 0 0 0 0 0 0 0 0 0 0 0 0 0 0 0 0 0 0 0 0 0 0 0 0 0 0 0 0 0 0 0 0 0 0 0 0 0 0 0 0 0 0 0 0 0 0 0 0 0 0 0 0 0 0 0 0 0 0 0 0 0 70 42 24 90 54 29 97 58 31 102 61 32 105 63 33 107 64 33 108 65 34 109 65 34 110 66 34 110 66 34 110 66 34 110 66 34 110 66 34 109 65 34 109 65 34 108 65 34 107 64 33 106 63 33 105 63 33 103 62 32 102 61 32 101 60 32 99 59 31 99 59 31 102 61 32 105 63 33 108 64 33 111 66 34 113 68 35 116 69 36 118 71 36 120 72 37 122 73 37 124 74 38 126 75 38 128 76 39 129 77 39 130 78 39 131 79 39 0 0 0 0 0 0 0 0 0 0 0 0 0 0 0 0 0 0 0 0 0 0 0 0 0 0 0 0 0 0 0 0 0 0 0 0 0 0 0 0 0 0 0 0 0 0 0 0 0 0 0 0 0 0 0 0 0 0 0 0 0 0 0 0 0 0 0 0 0 0 0 0 0 0 0 0 0 0 0 0 0 0 0 0 0 0 0 0 0 0 0 0 0 0 0 0 0 0 0 0 0 0 0 0 0 0 0 0 0 0 0 79 47 26 88 53 29 94 56 30 97 58 31 100 60 31 101 61 32 103 61 32 103 62 32 104 62 33 104 62 33 104 62 33 104 62 32 103 62 32 103 62 32 102 61 32 101 61 32 100 60 32 99 59 31 98 58 31 96 58 31 95 57 30 93 56 30 92 55 29 93 56 30 96 58 31 99 59 31 102 61 32 105 63 33 107 64 33 110 66 34 112 67 35 114 68 35 116 69 36 118 70 36 119 71 36 120 72 37 121 73 37 122 73 37 0 0 0 0 0 0 0 0 0 0 0 0 0 0 0 0 0 0 0 0 0 0 0 0 0 0 0 0 0 0 0 0 0 0 0 0 0 0 0 0 0 0 0 0 0 0 0 0 0 0 0 0 0 0 0 0 0 0 0 0 0 0 0 0 0 0 0 0 0 0 0 0 0 0 0 0 0 0 0 0 0 0 0 0 0 0 0 0 0 0 0 0 0 0 0 0 0 0 0 0 0 0 0 0 0 0 0 0 0 0 0 65 39 23 78 47 26 85 51 28 89 53 29 92 55 29 94 56 30 96 57 30 97 58 31 97 58 31 98 58 31 98 58 31 98 58 31 97 58 31 97 58 31 96 57 31 95 57 30 94 56 30 93 56 30 92 55 29 91 54 29 89 53 29 87 52 28 86 51 28 85 51 28 88 53 28 91 54 29 94 56 30 96 58 31 99 59 31 101 60 32 103 62 32 105 63 33 107 64 33 109 65 34 110 66 34 111 67 34 112 67 35 113 67 35 0 0 0 0 0 0 0 0 0 0 0 0 0 0 0 0 0 0 0 0 0 0 0 0 0 0 0 0 0 0 0 0 0 0 0 0 0 0 0 0 0 0 0 0 0 0 0 0 0 0 0 0 0 0 0 0 0 0 0 0 0 0 0 0 0 0 0 0 0 0 0 0 0 0 0 0 0 0 0 0 0 0 0 0 0 0 0 0 0 0 0 0 0 0 0 0 0 0 0 0 0 0 0 0 0 0 0 0 0 0 0 0 0 0 66 39 23 75 45 25 80 48 26 84 50 27 86 52 28 88 53 28 89 53 29 90 54 29 91 54 29 91 54 29 91 54 29 91 54 29 90 54 29 90 54 29 89 53 29 88 53 28 87 52 28 86 51 28 84 50 28 83 50 27 81 49 27 80 48 26 78 47 26 79 47 26 82 49 27 85 51 28 87 52 28 90 54 29 92 55 30 94 56 30 96 58 31 98 59 31 100 60 31 101 60 32 102 61 32 103 61 32 103 62 32 0 0 0 0 0 0 0 0 0 0 0 0 0 0 0 0 0 0 0 0 0 0 0 0 0 0 0 0 0 0 0 0 0 0 0 0 0 0 0 0 0 0 0 0 0 0 0 0 0 0 0 0 0 0 0 0 0 0 0 0 0 0 0 0 0 0 0 0 0 0 0 0 0 0 0 0 0 0 0 0 0 0 0 0 0 0 0 0 0 0 0 0 0 0 0 0 0 0 0 0 0 0 0 0 0 0 0 0 0 0 0 0 0 0 49 29 19 63 38 22 70 42 24 75 45 25 78 46 26 80 48 26 82 49 27 83 49 27 83 50 27 84 50 27 84 50 27 84 50 27 84 50 27 83 50 27 82 49 27 82 49 27 81 48 27 79 47 26 78 47 26 77 46 26 75 45 25 73 44 25 72 43 24 70 42 24 73 44 25 76 45 25 78 47 26 81 48 27 83 50 27 85 51 28 87 52 28 89 53 29 90 54 29 91 55 29 92 55 29 92 55 30 98 58 31 0 0 0 0 0 0 0 0 0 0 0 0 0 0 0 0 0 0 0 0 0 0 0 0 0 0 0 0 0 0 0 0 0 0 0 0 0 0 0 0 0 0 0 0 0 0 0 0 0 0 0 0 0 0 0 0 0 0 0 0 0 0 0 0 0 0 0 0 0 0 0 0 0 0 0 0 0 0 0 0 0 0 0 0 0 0 0 0 0 0 0 0 0 0 0 0 0 0 0 0 0 0 0 0 0 0 0 0 0 0 0 0 0 0 0 0 0 49 29 18 59 35 21 65 39 23 69 41 24 71 43 24 73 44 25 75 45 25 76 45 25 76 46 26 77 46 26 77 46 26 76 46 26 76 45 25 75 45 25 75 45 25 74 44 25 73 43 25 71 43 24 70 42 24 68 41 24 67 40 23 65 39 23 63 38 22 63 38 22 66 39 23 69 41 24 71 42 24 73 44 25 75 45 25 77 46 26 79 47 26 80 48 26 81 48 27 84 50 27 89 53 29 95 57 30 0 0 0 0 0 0 0 0 0 0 0 0 0 0 0 0 0 0 0 0 0 0 0 0 0 0 0 0 0 0 0 0 0 0 0 0 0 0 0 0 0 0 0 0 0 0 0 0 0 0 0 0 0 0 0 0 0 0 0 0 0 0 0 0 0 0 0 0 0 0 0 0 0 0 0 0 0 0 0 0 0 0 0 0 0 0 0 0 0 0 0 0 0 0 0 0 0 0 0 0 0 0 0 0 0 0 0 0 0 0 0 0 0 0 0 0 0 0 0 0 45 27 17 53 32 20 58 35 21 62 37 22 64 38 22 66 40 23 67 40 23 68 41 23 69 41 24 69 41 24 69 41 24 69 41 24 68 41 23 68 40 23 67 40 23 66 39 23 64 38 22 63 38 22 61 37 22 60 36 21 58 35 21 56 33 20 54 32 20 56 33 20 59 35 21 61 36 22 63 38 22 65 39 23 67 40 23 68 41 23 70 42 24 75 45 25 81 48 27 87 52 28 93 56 30 0 0 0 0 0 0 0 0 0 0 0 0 0 0 0 0 0 0 0 0 0 0 0 0 0 0 0 0 0 0 0 0 0 0 0 0 0 0 0 0 0 0 0 0 0 0 0 0 0 0 0 0 0 0 0 0 0 0 0 0 0 0 0 0 0 0 0 0 0 0 0 0 0 0 0 0 0 0 0 0 0 0 0 0 0 0 0 0 0 0 0 0 0 0 0 0 0 0 0 0 0 0 0 0 0 0 0 0 0 0 0 0 0 0 0 0 0 0 0 0 28 17 13 39 23 16 46 28 18 51 30 19 54 32 20 57 34 21 59 35 21 60 36 21 60 36 21 61 36 22 61 36 22 61 36 22 60 36 21 60 36 21 59 35 21 58 35 21 57 34 21 56 33 20 54 32 20 52 31 19 50 30 19 48 29 18 46 28 18 46 27 18 48 29 18 51 30 19 53 31 19 54 32 20 56 34 20 62 37 22 67 40 23 73 44 25 79 47 26 85 51 28 91 54 29 0 0 0 0 0 0 0 0 0 0 0 0 0 0 0 0 0 0 0 0 0 0 0 0 0 0 0 0 0 0 0 0 0 0 0 0 0 0 0 0 0 0 0 0 0 0 0 0 0 0 0 0 0 0 0 0 0 0 0 0 0 0 0 0 0 0 0 0 0 0 0 0 0 0 0 0 0 0 0 0 0 0 0 0 0 0 0 0 0 0 0 0 0 0 0 0 0 0 0 0 0 0 0 0 0 0 0 0 0 0 0 0 0 0 0 0 0 0 0 0 0 0 0 28 17 13 32 19 14 39 23 16 43 26 17 46 28 18 49 29 18 50 30 19 51 31 19 52 31 19 52 31 19 52 31 19 52 31 19 52 31 19 51 30 19 50 30 19 49 29 19 48 28 18 46 28 18 44 26 17 43 25 17 41 24 16 38 23 16 36 21 15 37 22 16 39 23 16 43 26 17 48 29 18 54 32 20 59 35 21 65 39 23 70 42 24 76 45 25 82 49 27 89 53 29 0 0 0 0 0 0 0 0 0 0 0 0 0 0 0 0 0 0 0 0 0 0 0 0 0 0 0 0 0 0 0 0 0 0 0 0 0 0 0 0 0 0 0 0 0 0 0 0 0 0 0 0 0 0 0 0 0 0 0 0 0 0 0 0 0 0 0 0 0 0 0 0 0 0 0 0 0 0 0 0 0 0 0 0 0 0 0 0 0 0 0 0 0 0 0 0 0 0 0 0 0 0 0 0 0 0 0 0 0 0 0 0 0 0 0 0 0 0 0 0 0 0 0 0 0 0 28 17 13 28 17 13 30 18 14 34 20 15 38 22 16 40 24 16 41 25 17 42 25 17 43 26 17 43 26 17 43 26 17 43 26 17 42 25 17 42 25 17 40 24 16 39 23 16 38 22 16 36 21 15 34 20 15 32 19 14 30 18 14 28 17 13 29 17 14 35 21 15 40 24 16 45 27 18 51 30 19 56 34 20 62 37 22 68 40 23 74 44 25 80 48 27 88 53 29 0 0 0 0 0 0 0 0 0 0 0 0 0 0 0 0 0 0 0 0 0 0 0 0 0 0 0 0 0 0 0 0 0 0 0 0 0 0 0 0 0 0 0 0 0 0 0 0 0 0 0 0 0 0 0 0 0 0 0 0 0 0 0 0 0 0 0 0 0 0 0 0 0 0 0 0 0 0 0 0 0 0 0 0 0 0 0 0 0 0 0 0 0 0 0 0 0 0 0 0 0 0 0 0 0 0 0 0 0 0 0 0 0 0 0 0 0 0 0 0 0 0 0 0 0 0 0 0 0 28 17 13 28 17 13 28 17 13 28 17 13 28 17 13 30 18 14 32 19 14 33 19 14 33 20 15 33 20 15 33 20 15 33 20 14 32 19 14 31 19 14 30 18 14 29 17 13 28 17 13 28 17 13 28 17 13 28 17 13 28 17 13 28 17 13 32 19 14 37 22 16 42 25 17 48 29 18 54 32 20 59 35 21 65 39 23 72 43 24 0 0 0 0 0 0 0 0 0 0 0 0 0 0 0 0 0 0 0 0 0 0 0 0 0 0 0 0 0 0 0 0 0 0 0 0 0 0 0 0 0 0 0 0 0 0 0 0 0 0 0 0 0 0 0 0 0 0 0 0 0 0 0 0 0 0 0 0 0 0 0 0 0 0 0 0 0 0 0 0 0 0 0 0 0 0 0 0 0 0 0 0 0 0 0 0 0 0 0 0 0 0 0 0 0 0 0 0 0 0 0 0 0 0 0 0 0 0 0 0 0 0 0 0 0 0 0 0 0 0 0 0 0 0 0 0 0 0 0 0 0 28 17 13 28 17 13 28 17 13 28 17 13 28 17 13 28 17 13 28 17 13 28 17 13 28 17 13 28 17 13 28 17 13 28 17 13 28 17 13 28 17 13 28 17 13 28 17 13 28 17 13 28 17 13 28 17 13 28 17 13 28 17 13 34 20 15 39 23 16 45 27 18 51 30 19 57 34 20 63 38 22 0 0 0 0 0 0 0 0 0 0 0 0 0 0 0 0 0 0 0 0 0 0 0 0 0 0 0 0 0 0 0 0 0 0 0 0 0 0 0 0 0 0 0 0 0 0 0 0 0 0 0 0 0 0 0 0 0 0 0 0 0 0 0 0 0 0 0 0 0 0 0 0 0 0 0 0 0 0 0 0 0 0 0 0 0 0 0 0 0 0 0 0 0 0 0 0 0 0 0 0 0 0 0 0 0 0 0 0 0 0 0 0 0 0 0 0 0 0 0 0 0 0 0 0 0 0 0 0 0 0 0 0 0 0 0 0 0 0 0 0 0 0 0 0 0 0 0 28 17 13 28 17 13 28 17 13 28 17 13 28 17 13 28 17 13 28 17 13 28 17 13 28 17 13 28 17 13 28 17 13 28 17 13 28 17 13 28 17 13 28 17 13 28 17 13 28 17 13 28 17 13 28 17 13 28 17 13 30 18 14 36 21 15 42 25 17 48 28 18 54 32 20 0 0 0 0 0 0 0 0 0 0 0 0 0 0 0 0 0 0 0 0 0 0 0 0 0 0 0 0 0 0 0 0 0 0 0 0 0 0 0 0 0 0 0 0 0 0 0 0 0 0 0 0 0 0 0 0 0 0 0 0 0 0 0 0 0 0 0 0 0 0 0 0 0 0 0 0 0 0 0 0 0 0 0 0 0 0 0 0 0 0 0 0 0 0 0 0 0 0 0 0 0 0 0 0 0 0 0 0 0 0 0 0 0 0 0 0 0 0 0 0 0 0 0 0 0 0 0 0 0 0 0 0 0 0 0 0 0 0 0 0 0 0 0 0 0 0 0 0 0 0 0 0 0 0 0 0 28 17 13 28 17 13 28 17 13 28 17 13 28 17 13 28 17 13 28 17 13 28 17 13 28 17 13 28 17 13 28 17 13 28 17 13 28 17 13 28 17 13 28 17 13 28 17 13 28 17 13 28 17 13 28 17 13 32 19 14 38 23 16 0 0 0 0 0 0 0 0 0 0 0 0 0 0 0 0 0 0 0 0 0 0 0 0 0 0 0 0 0 0 0 0 0 0 0 0 0 0 0 0 0 0 0 0 0 0 0 0 0 0 0 0 0 0 0 0 0 0 0 0 0 0 0 0 0 0 0 0 0 0 0 0 0 0 0 0 0 0 0 0 0 0 0 0 0 0 0 0 0 0 0 0 0 0 0 0 0 0 0 0 0 0 0 0 0 0 0 0 0 0 0 0 0 0 0 0 0 0 0 0 0 0 0 0 0 0 0 0 0 0 0 0 0 0 0 0 0 0 0 0 0 0 0 0 0 0 0 0 0 0 0 0 0 0 0 0 0 0 0 0 0 0 0 0 0 0 0 0 28 17 13 28 17 13 28 17 13 28 17 13 28 17 13 28 17 13 28 17 13 28 17 13 28 17 13 28 17 13 28 17 13 28 17 13 28 17 13 28 17 13 28 17 13 28 17 13 0 0 0 0 0 0 0 0 0 0 0 0 0 0 0 0 0 0 0 0 0 0 0 0 0 0 0 0 0 0 0 0 0 0 0 0 0 0 0 0 0 0 0 0 0 0 0 0 0 0 0 0 0 0 0 0 0 0 0 0 0 0 0 0 0 0 0 0 0 0 0 0 0 0 0 0 0 0 0 0 0 0 0 0 0 0 0 0 0 0 0 0 0 0 0 0 0 0 0 0 0 0 0 0 0 0 0 0 0 0 0 0 0 0 0 0 0 0 0 0 0 0 0 0 0 0 0 0 0 0 0 0 0 0 0 0 0 0 0 0 0 0 0 0 0 0 0 0 0 0 0 0 0 0 0 0 0 0 0 0 0 0 0 0 0 0 0 0 0 0 0 0 0 0 0 0 0 0 0 0 0 0 0 0 0 0 0 0 0 28 17 13 28 17 13 28 17 13 28 17 13 28 17 13 28 17 13 28 17 13 28 17 13 0 0 0 0 0 0 0 0 0 0 0 0 0 0 0 0 0 0 0 0 0 0 0 0 0 0 0 0 0 0 0 0 0 0 0 0 0 0 0 0 0 0 0 0 0 0 0 0 0 0 0 0 0 0 0 0 0 0 0 0 0 0 0 0 0 0 0 0 0 0 0 0 0 0 0 0 0 0 0 0 0 0 0 0 0 0 0 0 0 0 0 0 0 0 0 0 0 0 0 0 0 0 0 0 0 0 0 0 0 0 0 0 0 0 0 0 0 0 0 0 0 0 0 0 0 0 0 0 0 0 0 0 0 0 0 0 0 0 0 0 0 0 0 0 0 0 0 0 0 0 0 0 0 0 0 0 0 0 0 0 0 0 0 0 0 0 0 0 0 0 0 0 0 0 0 0 0 0 0 0 0 0 0 0 0 0 0 0 0 0 0 0 0 0 0 0 0 0 0 0 0 0 0 0 0 0 0 0 0 0 0 0 0 0 0 0 0 0 0 0 0 0 0 0 0 0 0 0 0 0 0 0 0 0 0 0 0 0 0 0 0 0 0 0 0 0 0 0 0 0 0 0 0 0 0 0 0 0 0 0 0 0 0 0 0 0 0 0 0 0 0 0 0 0 0 0 0 0 0 0 0 0 0 0 0 0 0 0 0 0 0 0 0 0 0 0 0 0 0 0 0 0 0 0 0 0 0 0 0 0 0 0 0 0 0 0 0 0 0 0 0 0 0 0 0 0 0 0 0 0 0 0 0 0 0 0 0 0 0 0 0 0 0 0 0 0 0 0 0 0 0 0 0 0 0 0 0 0 0 0 0 0 0 0 0 0 0 0 0 0 0 0 0 0 0 0 0 0 0 0 0 0 0 0 0 0 0 0 0 0 0 0 0 0 0 0 0 0 0 0 0 0 0 0 0 0 0 0 0 0 0 0 0 0 0 0 0 0 0 0 0 0 0 0 0 0 0 0 0 0 0 0 0 0 0 0 0 0 0 0 0 0 0 0 0 0 0 0 0 0 0 0 0 0 0 0 0 0 0 0 0 0 0 0 0 0 0 0 0 0 0 0 0 0 0 0 0 0 0 0 0 0 0 0 0 0 0 0 0 0 0 0 0 0 0 0 0 0 0 0 0 0 0 0 0 0 0 0 0 0 0 0 0 0 0 0 0 0 0 0 0 0 0 0 0 0 0 0 0 0 0 0 0 0 0 0 0 0 0 0 0 0 0 0 0 0 0 0 0 0 0 0 0 0 0 0 0 0 0 0 0 0 0 0 0 0 0 0 0 0 0 0 0 0 0 0 0 0 0 0 0 0 0 0 0 0 0 0 0 0 0 0 0 0 0 0 0 0 0 0 0 0 0 0 0 0 0 0 0 0 0 0 0 0 0 0 0 0 0 0 0 0 0 0 0 0 0 0 0 0 0 0 0 0 0 0 0 0 0 0 0 0 0 0 0 0 0 0 0 0 0 0 0 0 0 0 0 0 0 0 0 0 0 0 0 0 0 0 0 0 0 0 0 0 0 0 0 0 0 0 0 0 0 0 0 0 0 0 0 0 0 0 0 0 0 0 0 0 0 0 0 0 0 0 0 0 0 0 0 0 0 0 0 0 0 0 0 0 0 0 0 0 0 0 0 0 0 0 0 0 0 0 0 0 0 0 0 0 0 0 0 0 0 0 0 0 0 0 0 0 0 0 0 0 0 0 0 0 0 0 0 0 0 0 0 0 0 0 0 0 0 0 0 0 0 0 0 0 0 0 0 0 0 0 0 0 0 0 0 0 0 0 0 0 0 0 0 0 0 0 0 0 0 0 0 0 0 0 0 0 0 0 0 0 0 0 0 0 0 0 0 0 0 0 0 0 0 0 0 0 0 0 0 0 0 0 0 0 0 0 0 0 0 0 0 0 0 0 0 0 0 0 0 0 0 0 0 0 0 0 0 0 0 0 0 0 0 0 0 0 0 0 0 0 0 0 0 0 0 0 0 0 0 0 0 0 0 0 0 0 0 0 0 0 0 0 0 0 0 0 0 0 0 0 0 0 0 0 0 0 0 0 0 0 0 0 0 0 0 0 0 0 0 0 0 0 0 0 0 0 0 0 0 0 0 0 0 0 0 